<?xml version="1.0" encoding="UTF-8" standalone="no"?>
<svg
   width="1200"
   height="1200"
   viewBox="0 0 1200 1200"
   fill="none"
   version="1.1"
   id="svg3"
   xmlns="http://www.w3.org/2000/svg"
   xmlns:svg="http://www.w3.org/2000/svg">
  <g
     clip-path="url(#clip0_12433_304822)"
     id="g2">
    <rect
       width="1200"
       height="1200"
       fill="#3400eb"
       id="rect1"
       x="0"
       y="0" />
    <rect
       width="1200"
       height="1200"
       rx="600"
       fill="#3400eb"
       id="rect2"
       x="0"
       y="0" />
    <path
       d="M 837.01,760.89 473.387,850.858 363.299,821.426 v -65.405 c 0,-35.941 -0.288,-61.852 -0.289,-61.966 L 475.301,721.179 837.01,632.531 Z M 776.683,617.98 473.741,694.434 c -0.22,-0.066 -82.395,-24.802 -110.444,-34.986 l -0.287,-123.19 109.73,29.9 303.943,-77.124 z M 837.01,449.479 c -0.006,-2.446 -362.237,89.39 -362.237,89.39 L 363.01,507.974 c 0,-42.749 0.289,-126.554 0.289,-126.554 l 110.566,28.865 123.012,-28.865 c 67.478,-18.429 240.079,-60.864 240.133,-60.878 z"
       fill="#ffffff"
       id="path2" />
  </g>
  <defs
     id="defs3">
    <clipPath
       id="clip0_12433_304822">
      <rect
         width="1200"
         height="1200"
         fill="#ffffff"
         id="rect3"
         x="0"
         y="0" />
    </clipPath>
  </defs>
</svg>
